<svg xmlns="http://www.w3.org/2000/svg" width="31.092" height="31.092" viewBox="0 0 31.092 31.092"><defs><style>.a{fill:#4267b2;}.b{fill:#fff;}</style></defs><path class="a" d="M29.376,0H1.715A1.716,1.716,0,0,0,0,1.716V29.377a1.716,1.716,0,0,0,1.716,1.715h27.66a1.716,1.716,0,0,0,1.716-1.716h0V1.715A1.716,1.716,0,0,0,29.376,0Zm0,0" transform="translate(0 0)"/><path class="b" d="M215.9,103.721V91.7h4.054l.607-4.706H215.9v-3c0-1.359.377-2.286,2.327-2.286h2.471v-4.2a33.212,33.212,0,0,0-3.621-.185c-3.583,0-6.035,2.186-6.035,6.2v3.464H207V91.7h4.038v12.024Zm0,0" transform="translate(-194.429 -72.629)"/></svg>