<svg xmlns="http://www.w3.org/2000/svg" xmlns:xlink="http://www.w3.org/1999/xlink" width="31.092" height="31.092" viewBox="0 0 31.092 31.092"><defs><style>.a{fill:url(#a);}.b{fill:url(#b);}.c{fill:url(#c);}</style><linearGradient id="a" x1="0.084" y1="0.916" x2="0.916" y2="0.084" gradientUnits="objectBoundingBox"><stop offset="0" stop-color="#ffd600"/><stop offset="0.5" stop-color="#ff0100"/><stop offset="1" stop-color="#d800b9"/></linearGradient><linearGradient id="b" x1="0.146" y1="0.854" x2="0.854" y2="0.146" gradientUnits="objectBoundingBox"><stop offset="0" stop-color="#ff6400"/><stop offset="0.5" stop-color="#ff0100"/><stop offset="1" stop-color="#fd0056"/></linearGradient><linearGradient id="c" x1="0.146" y1="0.854" x2="0.854" y2="0.146" gradientUnits="objectBoundingBox"><stop offset="0" stop-color="#f30072"/><stop offset="1" stop-color="#e50097"/></linearGradient></defs><path class="a" d="M31,9.137a11.413,11.413,0,0,0-.723-3.774,7.619,7.619,0,0,0-1.793-2.754A7.621,7.621,0,0,0,25.729.816,11.411,11.411,0,0,0,21.956.094C20.3.018,19.768,0,15.546,0s-4.752.018-6.41.093A11.415,11.415,0,0,0,5.363.816,7.619,7.619,0,0,0,2.609,2.609,7.621,7.621,0,0,0,.816,5.363,11.412,11.412,0,0,0,.094,9.136C.018,10.794,0,11.324,0,15.546s.018,4.752.094,6.41a11.41,11.41,0,0,0,.723,3.774A7.618,7.618,0,0,0,2.61,28.483a7.617,7.617,0,0,0,2.754,1.793A11.407,11.407,0,0,0,9.137,31c1.658.076,2.188.093,6.41.093s4.752-.018,6.41-.093a11.408,11.408,0,0,0,3.774-.723,7.948,7.948,0,0,0,4.546-4.546A11.41,11.41,0,0,0,31,21.956c.075-1.658.093-2.188.093-6.41S31.074,10.794,31,9.137ZM28.2,21.828a8.6,8.6,0,0,1-.535,2.887,5.148,5.148,0,0,1-2.95,2.95,8.6,8.6,0,0,1-2.887.535c-1.639.075-2.131.091-6.282.091S10.9,28.276,9.264,28.2a8.6,8.6,0,0,1-2.887-.535A4.818,4.818,0,0,1,4.59,26.5a4.816,4.816,0,0,1-1.163-1.787,8.6,8.6,0,0,1-.535-2.887C2.817,20.189,2.8,19.7,2.8,15.546s.016-4.643.091-6.282a8.608,8.608,0,0,1,.535-2.887A4.82,4.82,0,0,1,4.59,4.59,4.813,4.813,0,0,1,6.378,3.427a8.6,8.6,0,0,1,2.887-.535C10.9,2.817,11.4,2.8,15.546,2.8h0c4.151,0,4.643.016,6.282.091a8.6,8.6,0,0,1,2.887.535A4.82,4.82,0,0,1,26.5,4.59a4.813,4.813,0,0,1,1.163,1.788A8.594,8.594,0,0,1,28.2,9.264c.075,1.639.091,2.131.091,6.282S28.275,20.189,28.2,21.828Zm0,0"/><path class="b" d="M132.522,124.539a7.983,7.983,0,1,0,7.983,7.983A7.983,7.983,0,0,0,132.522,124.539Zm0,13.165a5.182,5.182,0,1,1,5.182-5.182A5.182,5.182,0,0,1,132.522,137.7Zm0,0" transform="translate(-116.976 -116.976)"/><path class="c" d="M365.661,90.491a1.866,1.866,0,1,1-1.865-1.866A1.866,1.866,0,0,1,365.661,90.491Zm0,0" transform="translate(-339.951 -83.243)"/></svg>