<svg xmlns="http://www.w3.org/2000/svg" width="31.092" height="25.269" viewBox="0 0 31.092 25.269"><defs><style>.a{fill:#1da1f2;}</style></defs><path class="a" d="M9.778,25.769c11.734,0,18.15-9.721,18.15-18.15q0-.414-.018-.825a12.979,12.979,0,0,0,3.182-3.3,12.725,12.725,0,0,1-3.663,1A6.4,6.4,0,0,0,30.234.967a12.8,12.8,0,0,1-4.051,1.548A6.385,6.385,0,0,0,15.313,8.333,18.112,18.112,0,0,1,2.164,1.668a6.385,6.385,0,0,0,1.975,8.516,6.331,6.331,0,0,1-2.889-.8c0,.027,0,.053,0,.081a6.381,6.381,0,0,0,5.118,6.253,6.371,6.371,0,0,1-2.881.109,6.386,6.386,0,0,0,5.959,4.431,12.8,12.8,0,0,1-7.923,2.731A13.006,13.006,0,0,1,0,22.9a18.058,18.058,0,0,0,9.778,2.866" transform="translate(0 -0.5)"/></svg>